/* XPM */
static char *a4abca96ff4a4572e2295f6ed06e12e7CuQB6Jq23rhjxbAu[] = {
/* columns rows colors chars-per-pixel */
"68 64 181 2 ",
"   c None",
".  c #821206",
"X  c #8B1206",
"o  c #891807",
"O  c #921407",
"+  c #9F1507",
"@  c #A21507",
"#  c #AE1707",
"$  c #AC1708",
"%  c #AD1C08",
"&  c #B41808",
"*  c #BC1908",
"=  c #8F2508",
"-  c #992308",
";  c #902909",
":  c #942108",
">  c #99360A",
",  c #B92E0A",
"<  c #A33A0B",
"1  c #BA2E10",
"2  c #C01908",
"3  c #C11C07",
"4  c #C2240B",
"5  c #C62D0A",
"6  c #C82E0A",
"7  c #C7300A",
"8  c #CA300B",
"9  c #D03C0D",
"0  c #C62F16",
"q  c #C73619",
"w  c #A54A0C",
"e  c #A2450B",
"r  c #AB540C",
"t  c #B45C0E",
"y  c #B6630E",
"u  c #B76710",
"i  c #BF7310",
"p  c #BA5F22",
"a  c #866523",
"s  c #896724",
"d  c #8D6A26",
"f  c #8A692B",
"g  c #926E27",
"h  c #936F28",
"j  c #957322",
"k  c #967128",
"l  c #9A742A",
"z  c #8D6E32",
"x  c #93763B",
"c  c #9C7A38",
"v  c #A8712A",
"b  c #A47B2E",
"n  c #A87E2F",
"m  c #A07C38",
"M  c #CF480D",
"N  c #D34B0E",
"B  c #D4430E",
"V  c #C0540E",
"C  c #D75F0F",
"Z  c #D7560E",
"A  c #C04C1B",
"S  c #C1541F",
"D  c #D15217",
"F  c #DD6817",
"G  c #C17511",
"H  c #DE7311",
"J  c #DF7A12",
"K  c #E76C14",
"L  c #E67912",
"P  c #CC4323",
"I  c #C16C28",
"U  c #987D47",
"Y  c #DD7C48",
"T  c #DC7946",
"R  c #AD8A20",
"E  c #AA802F",
"W  c #A58122",
"Q  c #AD8231",
"!  c #AA843B",
"~  c #B18531",
"^  c #B58933",
"/  c #BB8D35",
"(  c #BF9036",
")  c #D18F13",
"_  c #C39F1E",
"`  c #D99914",
"'  c #E28012",
"]  c #F58B18",
"[  c #EB9B15",
"{  c #E89214",
"}  c #F79A1E",
"|  c #FD9C1B",
" . c #FB961A",
".. c #C8A31E",
"X. c #DAA91A",
"o. c #EEA515",
"O. c #E2AA16",
"+. c #EEAA17",
"@. c #F1AD17",
"#. c #FEA41B",
"$. c #FEAB1B",
"%. c #EDBC18",
"&. c #EBB21E",
"*. c #FEB41B",
"=. c #FEBB1B",
"-. c #F5B918",
";. c #CA8929",
":. c #D98C28",
">. c #D9952B",
",. c #C28531",
"<. c #C38D35",
"1. c #C39337",
"2. c #C99334",
"3. c #CA9B33",
"4. c #C49735",
"5. c #E89927",
"6. c #FE9E21",
"7. c #CDA02E",
"8. c #D2A62E",
"9. c #D4A82B",
"0. c #DEA022",
"q. c #FEA023",
"w. c #FEA22B",
"e. c #FCA82F",
"r. c #E6BA27",
"t. c #FEB826",
"y. c #FDA93C",
"u. c #FDA735",
"i. c #FEB232",
"p. c #EFC919",
"a. c #F4C119",
"s. c #FDC41B",
"d. c #F4CC1B",
"f. c #FDCC1B",
"g. c #FED61B",
"h. c #EBC024",
"j. c #F7C823",
"k. c #FED723",
"l. c #FED826",
"z. c #FDD529",
"x. c #FED92C",
"c. c #FEDA32",
"v. c #FEDC3C",
"b. c #FED533",
"n. c #AE8943",
"m. c #B08C47",
"M. c #A18755",
"N. c #A58A56",
"B. c #A68D5D",
"V. c #DF8046",
"C. c #C59840",
"Z. c #E79F5F",
"A. c #FDAC40",
"S. c #FEBC45",
"D. c #FDB859",
"F. c #FCBA61",
"G. c #F0BA70",
"H. c #FDCE44",
"J. c #FEDD42",
"K. c #FEDE4A",
"L. c #FCD747",
"P. c #FEDF56",
"I. c #FDE055",
"U. c #FEE15A",
"Y. c #FDC163",
"T. c #FED767",
"R. c #F4C679",
"E. c #FED672",
"W. c #FEE363",
"Q. c #FEE56C",
"!. c #FEE77B",
"~. c #FEE677",
"^. c #FDE485",
"/. c #FEE985",
"(. c #FCE58C",
"). c #FEEA8D",
"_. c #FEEB90",
"`. c #FEEB90",
"'. c #FEE896",
"]. c #FDDFB7",
"[. c #FDF0AE",
/* pixels */
"                                                                f f     f f f s f U                                                     ",
"                                                      M.M.M.M.M.k l B.! E n n n l m                                                     ",
"                                                      s s s f l n n a E 1.1.1.1.~ b b                                                   ",
"                                            a a a a d b b b / 1.1.1.a l E 1.1.1.1.^ a                                                   ",
"                                    a a a d b b 1.1.1.1.1.1.1.1.1.1.a a d b 1.1.1.^ a                                                   ",
"                              U f z b b b Q 1.1.1.~ n Q 1.1.1.1.1.1./ l d b 1.1.l s a                                                   ",
"                          B.B.c l b ^ ^ ^ ^ 1.1.b l l b ^ 1.1.1.1.1.1.k s h b b g j ..d.                                                ",
"                          s d b ^ 1.1.1.1.1.1.1.d a s l b 1.1.1.1.1./ l a d d j j R g.k.                                                ",
"                        a b 1.1.1.1.1.1.1.1.4.1.1.k a a E 1.( 4.1.1.a a l 1.1.g.g.g.g.g.g.                                              ",
"                    U d b 1.1.1.1.1.1.1.1.1.1.1.1.1.~ a b 1.1.^ a a 1.h.g.g.g.g.g.+.3 * 2 2 4                                           ",
"                f f l Q ( 1.1.Q Q 1.1.1.1.1.1.1.1.1.~ a a s s W d.d.d.g.f.*.g.g.y O $ 2 # & 2 4                                         ",
"                l b ^ / 1.b ~ Q E ^ 1.1.1.1.1.1.1.E k a a ....X.g.g.g.g.g.s.g.g.t $ & 2 & * 2 3 s.                                      ",
"              d Q 1.1.1.( d l b b b ( 1.1.1.( ( ( k j j j g.g.g.g.g.g.g.g.g.g.g.F 0 2 2 2 2 3 q g.#.                                    ",
"          x l 1.1.1.1.1.1.1.a a d E b 1.1.1.( a a ~ 8.g.g.g.g.g.g.g.g.g.g.g.g.g.Q.G.2 2 2 2 P ).g.g.=.                                  ",
"        a a l 1.b b / 1.1.1.1.1.Q a b 1.k a a 1.g.g.g.g.g.g.g.o.3 2 2 * M g.g.g.g.g.g._.`.`.`.`.).k.g.g.                                ",
"        a ~ ^ n b b ( 1.1.1.1.1.~ a a s ~ 7.d.d.g.g.g.g.g.g.C 4 2 2 2 2 3 6 g.g.g.g.g.z.).`.`.`._./.J.g.g.                              ",
"        Q ~ Q b b b Q / 1.1.1.Q l a a b 9.h.g.g.g.g.g.s.g.G , * & 2 2 & & 3 H g.g.g.g.g.V.Y Y Y T (.J.g.g.s.                            ",
"      d 1.b l b b b b Q ( 1./ g a s j 3.j.g.g.g.g.g.f.*.g.. # * $ 2 2 & & 2 3 d.g.g.g.%.4 2 2 * 2 R.L.l.g.g.                            ",
"    1.1.1.k a a a b b b b 1.a a l 1.g.g.g.g.g.g.g.g.g.g.g.o # * 2 2 2 2 2 2 3 g.g.g.g.. * 2 * $ 2 2 Z.!.g.g.|                           ",
"x l 1.1.1.1.1.1.a a a d b a a ^ 8.g.g.g.g.g.g.g.g.g.g.g.g.g.w . . 2 2 $ & 2 g.g.g.O.. * $ * 2 2 2 2 2 P `.).k.                          ",
"n.Q 1.1.1.1.1.1./ / g a s / / r.g.g.g.g.g.g.g.g.g.g.g.g.g.g.d.a.a.a.a.a.a.s.g.g.g.+.* * * * * % 2 2 * P _._.k.g.f.w.                    ",
"n.~ 1.1.1.1.1.1.1.1.k a a 1.r.g.g.g.g.L J H H H g.g.g.g.s.g.g.g.g.g.g.g.g.g.g.s.g.-.J @ + & * & 2 2 Z 5._._.U.x.g.=.                    ",
"n.~ 1.1.1.1.1.1.1.1.l a g 3.g.g.g.g.%.3 3 3 * * -.f.g.g.*.g.g.g.g.g.g.g.g.g.g.*.f.g.g.; ; , 7 7 6 6 [ c.^._._.I.z.g.#.                  ",
"n.~ 1.1.1.1.1.1.1.1.g l 1.g.g.g.g.d.. * * & $ 3 3 o.g.g.g.g.g.g.g.g.g.g.g.g.g.g.g.g.g.g.g.g.g.g.g.g.g.g.g._._._.!.g.g.                  ",
"x g b 1.1.1.1.1.1.a a R g.g.g.g.[ 2 2 $ * 3 3 3 3 2 N g.g.g.g.g.g.3 2 2 2 2 g.g.g.g.g.g.g.g.g.g.g.g.g.g.g.g.).).)._.g.|                 ",
"x g b n n n ~ 1.d a Q 8.g.g.=.f.` X 2 * * * # * 2 2 M g.g.g.g.O.= 3 2 2 * $ 5 g.g.g.g.g.g.g.g.g.g.g.g.f.*.g.l.Q._._./.k.k.v.            ",
"  N.l g h h l b b b 9.r.g.g.s.f.&.i @ @ & * & * 3 C { g.g.g.) t @ & 2 2 * & 2 H -.g.g.g.g.f.s.g.g.g.g.g.s.g.g.J.W.).`.k.g.z.            ",
"    z s s d s g ,.,.&.s.f.g.g.g.g.g.; = % * * 7 6 o.g.g.g.g.w O 2 $ * * 2 2 2 2 o.g.g.g.g.s.=.g.a.a.a.a.a.g.g.g.x.^.`.c.k.f.#.          ",
"      b b / 1.<.3 3 2 B | g.g.g.g.g.g.g.e . o g.g.g.g.g.g.g.w O 2 3 * & & 2 2 2 [ g.g.g.g.g.g.g.3 2 2 2 2 g.g.g.g.g._._.K.g.g.          ",
"        n b b b 2 3 2 2 2 3 g.g.g.g.g.g.g.g.g.g.g.g.g.g.g.g.g.X.. . * 3 * 2 * s.g.g.g.g.g.g.@.* 2 $ * 2 2 2 f.g.g.g._._.J.g.g.|         ",
"              b v v 1 2 2 2 5 ] *.g.g.g.g.g.g.g.g.g.g.g.g.g.g.g.%.a.o X < a.a.g.g.g.g.g.g.u + * 2 * * 2 2 2 5 [ g.g._._.K.g.g.g.        ",
"                  b p S S S 2 9 F J =.g.g.g.g.g.g.g.g.g.s.g.g.g.g.g.G G ) g.g.g.g.g.g.g.g.r O 2 2 2 2 2 & 2 2 { g.g.P.).Q.K.g.g.Y.      ",
"                  ! / 1.1.<.1 4 1 4 6.g.g.g.l.a.g.g.g.g.=.g.g.g.g.g.g.g.g.g.g.g.g.g.g.g.g.u - * * * 3 * $ 2 5 [ g.g.g./.).!.g.g.|       ",
"                    m.b b b 1.1.1.1.<.g.g.J.(.2 g.g.g.g.g.g.g.g.g.g.g.g.g.g.g.g.g.g.g.g.g.g.O.. . * 3 * 2 2 f.g.g.g.g.).`.!.g.g.#.      ",
"                              n.Q 1.1.| f.v.(.2  .s.g.g.g.g.g.g.g.g.g.g.g.g.g.g.=.=.g.g.g.g.g.g.. . . > g.g.g.g.g.g.g.)._.!.g.g.g.!.    ",
"                                      | f.k.l.,.3.5.*.g.g.g.g.g.g.g.g.g.g.g.g.g.g.g.g.g.g.g.g.g.a.%.a.a.g.g.g.g.g.g.g.l.Q.!.g.g.g.t.y.  ",
"                                      | s.x.I.  / ;.0.g.g.g.g.g.g.g.g.g.g.g.g.g.g.g.g.g.g.g.g.g.g.g.g.g.g.g.g.g.g.g.g.g.W./.I.g.g.*.w.  ",
"                                      w.f.v./.  ! n 4.g.g.g.l.k.g.g.g.g.g.g.g.g.g.g.g.g.a.f.g.g.g.g.g.g.g.g.g.g.g.g.g.g.U./._.g.g.*.e.  ",
"                                        v.g.k.        | g.g.Q.E.| | g.g.g.g.g.g.g.g.g.g.4 K #.g.g.g.g.g.g.g.g.s.s.g.g.g.g.x._.g.g.*.w.  ",
"                                        u.$.g.g.        g.g.Q.E.| b g.g.g.g.g.g.g.g.g.2 2 2 2 2 | g.g.g.g.g.g.g.g.g.g.g.g.x._._.l.g.c.  ",
"                                            #.g.'.      #.g.z.j.|   #.s.g.g.g.!.v.f.| ,.,.,.I 2 6 8 L q.g.g.g.g.g.g.g.g.g.x.).`./.J.c.  ",
"                                              =.P.      | g.v.H.|   6.s.g.g.g./.J.f.| ~ ^ / ,.S S S D Z H =.*.=.s.g.g.g.g.k.I.I.I.c.c.  ",
"                                              q.g._.    | g.T.T.|   w.s.f.g.g.).v.s. .      1.C.1.1.t 2 ,  .] | #.g.g.f.g.g.g.g.z.g.c.  ",
"                                                g.g.J.  | g.$. .6.    A.$.g.$.(.J.f.|           b b / 1.1.<.* K #.g.g.#.=.g.g.g.).K.c.  ",
"                                                  y.$.g.g.g.$.6.      A.$.g.g.v.z.f.|                   b b 1.5.#.g.).q.N 8 | g.).K.c.  ",
"                                                      #.g.g.$.|         '.g.g.v.t.| |                         F.$.g.l.| :.;.| g./.K.c.  ",
"                                                      D.=.g.$.            g.g.W.i.w.                            S.g.g.| >.2.5.g./.K.c.  ",
"                                                        6.g.$.|           g.g.!.S.A.                              g.z.| >./ 1.g.).K.c.  ",
"                                                          k.$.y.          g.g.g.                                ].| ).q.;.E 1.g./.K.c.  ",
"                                                          k.$.w.          | g.                                  ].| _.6.      g./.K.c.  ",
"                                                          g.^.            | g.                                    f._.q.      #.z.k.c.  ",
"                                                          g.              D.g.                                    g._.q.        k.g.c.  ",
"                                                                            g.                                  [.g./.|         l.g.b.  ",
"                                                                            g.                                    g.g.|         z.*.w.  ",
"                                                                            g.                                      | |         z.*.w.  ",
"                                                                            g.                                                  l.*.w.  ",
"                                                                            g.                                                  l.*.w.  ",
"                                                                            l.                                                  z.=.e.  ",
"                                                                          g._.k.                                              g.g.g.f.w.",
"                                                                          g.g.).                                              g.).`.'.  ",
"                                                                            g.                                              c.*./._.^.v.",
"                                                                                                                            g.s.P.!.!.l.",
"                                                                                                                            l.g.g.U.!.c.",
"                                                                                                                              g.g.k.v.  "
};
