/* XPM */
static char *_933634fbbfc42d4d629bce489b5024aSWjFbabMvZqzlUm1[] = {
/* columns rows colors chars-per-pixel */
"64 64 144 2 ",
"   c None",
".  c #010100",
"X  c #0A0506",
"o  c #0C0B0B",
"O  c #10090B",
"+  c #150D10",
"@  c #190D11",
"#  c #141414",
"$  c #1A1412",
"%  c gray11",
"&  c #1E1B14",
"*  c #2C171E",
"=  c #211F1F",
"-  c #241318",
";  c #26231A",
":  c #2A271D",
">  c #302C1F",
",  c #0E1926",
"<  c #3B1E28",
"1  c #361C24",
"2  c #252323",
"3  c #282525",
"4  c #2C2C2C",
"5  c #3A3628",
"6  c #3D382A",
"7  c #373326",
"8  c #343333",
"9  c #3A3535",
"0  c #3B3B3B",
"q  c #42232D",
"w  c #4D2935",
"e  c #4A2632",
"r  c #522B38",
"t  c #443F3F",
"y  c #464030",
"u  c #4C4634",
"i  c #504937",
"p  c #524C39",
"a  c #6C3849",
"s  c #773E51",
"d  c #4E4949",
"f  c #4C4646",
"g  c #534D4D",
"h  c #58444A",
"j  c #565353",
"k  c #5B5656",
"l  c gray36",
"z  c #7D4154",
"x  c #6E654B",
"c  c #7E7457",
"v  c #78506E",
"b  c #6C6767",
"n  c #746F6F",
"m  c #737171",
"M  c #797575",
"N  c #7D7D7D",
"B  c #887E5E",
"V  c #867C5C",
"C  c #914B62",
"Z  c #9C516A",
"A  c #A2546E",
"S  c #B35D7A",
"D  c #827E7E",
"F  c #D64071",
"G  c #C7577B",
"H  c #D6507C",
"J  c #928764",
"K  c #9C906C",
"L  c #A0946E",
"P  c #A29670",
"I  c #AA9D75",
"U  c #D99775",
"Y  c #FFBF7F",
"T  c #D9CA4E",
"R  c #FFED5D",
"E  c #FFD66E",
"W  c #FFCD75",
"Q  c #FFC17E",
"!  c #FFE860",
"~  c #FFE364",
"^  c #FB4A85",
"/  c #FC568C",
"(  c #C56685",
")  c #D56F90",
"_  c #DA7193",
"`  c #FC6295",
"'  c #FD6799",
"]  c #FD6C9C",
"[  c #E9799E",
"{  c #EF7CA2",
"}  c #FE77A3",
"|  c #F17EA4",
" . c #FE7BA6",
".. c #599FF6",
"X. c #5CA4FE",
"o. c #66A3FA",
"O. c #848282",
"+. c #8D8787",
"@. c #8C8A8A",
"#. c #959393",
"$. c #999999",
"%. c #A6979B",
"&. c #FFB984",
"*. c #FFB08B",
"=. c #FFA991",
"-. c #ED88A9",
";. c #F680A7",
":. c #FF8DA7",
">. c #F781A8",
",. c #FF85AD",
"<. c #FF89AC",
"1. c #FF93A3",
"2. c #FF92AD",
"3. c #FF9CAD",
"4. c #EB89B7",
"5. c #E68AB9",
"6. c #F587B1",
"7. c #F986B0",
"8. c #FFA3AE",
"9. c #FFAAAE",
"0. c #FFB1AE",
"q. c #FFB9AE",
"w. c #F3BDA6",
"e. c #D0C08F",
"r. c #DCCB97",
"t. c #DDCC99",
"y. c #D5C593",
"u. c #FFC4AF",
"i. c #FFCBAF",
"p. c #FFD5AF",
"a. c #FFDCAF",
"s. c #FFDFB0",
"d. c #F3E1A8",
"f. c #F8E6AB",
"g. c #FDEAAE",
"h. c #FFE5B0",
"j. c #FFECB0",
"k. c #BB92CF",
"l. c #8D9BE6",
"z. c #9799E1",
"x. c #CE8EC5",
"c. c #D58DC2",
"v. c #C091CC",
"b. c #FBFBFB",
/* pixels */
"                                                                                                                                ",
"                                                                                                                                ",
"                                                                                                                                ",
"                                                                                                                                ",
"                                                                                                                                ",
"                                                                                                                                ",
"                                                                                                                                ",
"                                                                                                                                ",
"                                                                                                                                ",
"                                                            . . . . . . . . .                                                   ",
"                                                  . . . . u j.j.j.h.<.,.,.,.,.< . . . .                                         ",
"                                              . . L f.g.g.j.j.,.<.<.,.,.,.,.,.,.>.,.>.C . .                                     ",
"                                            > c c e.j.q.q.q.q.,.=.&.&.,.,.,.,.,.,.,.' G z z -                                   ",
"                                        . . 6 j.j.j.h.,.,.,.,.,.W R R <.,.,.>.,.,.,.^ ` ,.,.* X                                 ",
"                                    . X j.j.j.j.,.,.,.,.,.,.,.,.,.,.,.,.A . . ( ,.,.,.] ^ ,.,._ . . . .                         ",
"                                  . J j.j.j.j.j.,.,.,.,.,.,.,.,.,.,.,.X 9 $.$.2 @ ,.,.,.,.,.,._ . $.$.#..                       ",
"                                . K y.j.j.j.j.j.u.3.,.,.,.,.,.,.,.,.,.X 0 $.$.2 @ ,.,.,.,.,.,._ . $.$.#..                       ",
"                                . j.j.j.j.j.j.j.j.9.,.,.,.,.,.,.,.7.;.o 0 $.$.3 $ >.;.;.;.>.;.) X #.$.$.X                       ",
"                                . j.j.g.j.j.p.,.,.,.,.,.,.,.,.,.,.{ . #.$.$.$.$.@.. . . . . . # $.$.$.$.$.# .                   ",
"                            . : j.j.q.,.,.,.,.,.,.,.,.,.,.S . . . X d $.$.$.$.$.#.g #.N d $.l j $.$.$.$.$.# .                   ",
"                            . : j.8.2.,.,.,.,.,.l.c.,.,.,.{ S S 1 o O.#.$.$.$.$.#.O.$.@.O.$.O.O.$.$.$.$.$.m l . . . . .         ",
"                            o 7 j.,.,.,.,.,.,.,.o.v.6.| { { | { w o $.$.$.$.$.$.$.$.$.$.$.$.$.$.$.$.$.$.$.$.N . . . . .         ",
"                          . t.j.j.<.,.,.,.^ / ,.,.z.... . . . . 8 g $.$.$.$.$.$.$.$.$.$.$.$.$.$.$.$.$.$.$.$.N .                 ",
"                          . t.j.j.,.,.,.,.^ / ,.,.7.7.| o 4 #.f N $.$.$.$.$.b.t # $.$.$.$.$.$.$.$.b.N o $.$.N .                 ",
"                        . . t.j.j.s.8.,.,. . .7.,.,.,.,.O 4 $.d O.$.$.$.$.$.8 o o $.$.$.$.% O.$.$.9 % . $.$.#.N . . . . . .     ",
"                      . . & t.j.j.j.q.2.,.,.,.,.,.,.,.,.O 4 $.g O.$.$.%.%.%.# o = $.$.#.O.o m @.$.# # # %.%.%.$.. . . . . .     ",
"                  . . . . j.j.j.j.j.j.j.,.,.,.,.,.,.,.,.o 4 $.d O.$.$.<.,.<.$.$.$.$.$.j . d o # $.$.$.$.,.,.-.$..               ",
"            . . # #.d 3 . j.j.j.j.j.0.,.,.,.,.,.,.,.;.X @.$.$.#.$.$.$.>.,.7.$.$.$.$.$.$.$.$.#.$.$.$.$.$.,.,.-.$..               ",
"      . . . O.d g $.g 2 . j.j.j.j.2.<.,.,.,.,.,.,.,.;.. #.#.$.$.$.$.$.%.%.%.$.$.$.$.$.$.$.$.$.$.$.$.$.$.%.%.%.$..               ",
"      % # o $.k j N t = . j.j.j.s.,.,.,.<.1.1.,.,.,.;.. #.$.$.$.$.$.$.$.$.$.$.$.$.$.$.$.$.$.$.$.$.$.$.$.$.$.$.$..               ",
"    . #.N g $.k t . . . . j.j.a.,.,.,.,.,.~ E ,.,.,.;.. @.$.$.$.$.$.$.$.$.$.$.$.$.$.$.$.$.$.$.$.$.$.$.$.$.$.$.$..               ",
". X d $.$.#.. . .       X g.j.a.,.,.,.,.R 1.,.,.,.,.;.. #.$.$.$.$.$.$.$.$.$.$.$.$.$.$.$.$.$.$.$.$.$.$.$.$.$.#.+..               ",
". X g g 8 o             . j.j.a.,.,.,.,.:.,.,.,.,.,.;.. @.$.$.$.$.$.$.$.$.$.$.$.$.$.$.$.$.$.$.$.$.$.$.$.$.$.$.+..               ",
". X 9 9 3 .             . j.j.s.3.,.,.,.,.,.,.,.,.7.;.. #.$.$.$.$.$.$.$.$.$.$.$.$.$.$.$.$.$.$.$.$.$.$.$.$.$.#.+..               ",
"    . . .               X g.j.j.j.,.,.,.,.,.,.,.,.,.;.. @.$.$.$.$.$.$.$.$.$.$.$.$.$.$.$.$.$.$.$.$.$.$.$.$.+.+.+..               ",
"                        . . r.j.j.j.j.j.,.,.,.,.,.,.| . #.$.$.$.$.$.$.$.$.$.$.$.$.$.$.$.$.$.$.$.$.#.#.+.+.+.+.+..               ",
"                        . . r.j.j.j.j.j.,.,.,.,.,.,.,.| + 8 $.$.$.$.$.$.$.$.$.$.$.$.$.$.$.$.$.#.+.+.+.+.+.+.M .                 ",
"                        . . r.j.j.j.j.j.,.,.,.,.,.7.,.7.O 4 #.#.#.#.#.#.#.#.#.#.#.#.#.#.#.#.#.#.+.+.+.+.+.+.n .                 ",
"                          . r.j.j.j.j.j.,.,.,.,.,.7.,.,.O 3 +.+.+.+.+.+.+.+.+.+.+.+.+.+.+.+.+.+.+.+.+.+.+.+.n .                 ",
"                          . . : j.j.0.,.,.,.} ^ ^ ] ,.,.,.S . +.+.+.+.+.+.+.+.+.+.+.+.+.+.+.+.+.+.+.+.+.+.$ .                   ",
"                          . . : j.j.0.,.,.,.,.} } ,.,.,.,.{ ( = b +.+.+.+.+.+.+.+.+.+.+.+.+.+.+.+.+.j 2 +.# .                   ",
"                          . . ; B j.9.,.,.,.,.,.,.,.,.,.,.,.,.s h f f +.+.+.+.+.+.+.+.+.+.f D D d f 2 . f o .                   ",
"                                . j.0.,.,.,.,.,.,.,.,.,.,.,.,.,.w . . O.+.+.+.+.+.+.+.+.+.. n M . . . . . . .                   ",
"                                . j.j.j.,.,.,.,.,.,.7.,.,.x.X.,.,.,.,.X . . . . . . . . . . . . . X.X.X..                       ",
"                                  ; P g.a.a.a.a.s.8.,.,.,.x.X.,.,.,.,.F H _ _ _ _ _ _ U T ) _ _ _ 5.v ,                         ",
"                                    i x j.j.j.j.j.9.,.,.,.4.k.,.,.,.,.] ' ` ,.,.,.,.Q &.*.,.,.,.,.a e                           ",
"                                    . X f.f.g.g.j.0.<.<.<.<.<.,.,.,.,.,.] ^ ,.,.,.,.R &.,.,.>.>.>..                             ",
"                                        . . 5 j.j.j.j.j.j.j.j.,.,.,.,.,.,.,.,.,.,.,.,.,.,.,.* . .                               ",
"                                              $ $ I g.j.g.j.j.h.8.,.,.,.,.,.,.,.,.,.,.Z @ @                                     ",
"                                                  y p p p V j.j.p.i.i.i.0.,.,.z r r r q                                         ",
"                                                  . . . . u d.d.d.d.d.d.w.| | < . . . .                                         ",
"                                                            . . . . . . . . .                                                   ",
"                                                                                                                                ",
"                                                                                                                                ",
"                                                                                                                                ",
"                                                                                                                                ",
"                                                                                                                                ",
"                                                                                                                                ",
"                                                                                                                                ",
"                                                                                                                                ",
"                                                                                                                                ",
"                                                                                                                                ",
"                                                                                                                                ",
"                                                                                                                                "
};
