/* XPM */
static char *_22710e67c1a4fcfe52126ebd972543eHSijUJ73dTXaIhJx[] = {
/* columns rows colors chars-per-pixel */
"64 64 24 1 ",
"  c None",
". c black",
"X c #330200",
"o c #350A02",
"O c #3A1A05",
"+ c #3C2207",
"@ c #2F2F2F",
"# c #3F3F3F",
"$ c #6F6F6F",
"% c #9A0901",
"& c #CE0C02",
"* c #D42307",
"= c #D72B08",
"- c #B66915",
"; c #DE430D",
": c #E25411",
"> c #C36915",
", c #E96C16",
"< c #EC7417",
"1 c #F0841B",
"2 c #F38C1D",
"3 c gray75",
"4 c gray81",
"5 c white",
/* pixels */
"                    ........................                    ",
"                    ........................                    ",
"                    ........................                    ",
"                    ....XXXX+++++++OXXXX....                    ",
"            ............&&&&2222222,&&&&............            ",
"            ............&&&&2222222,&&&&............            ",
"            ............&&&&2222222,&&&&............            ",
"            ............&&&&2222222,&&&&............            ",
"        .......X&&&&&&&&&&&&2222222,&&&&&&&&&&&%........        ",
"        .......X&&&&&&&&&&&&2222222,&&&&&&&&&&&%........        ",
"        .......X&&&&&&&&&&&&2222222,&&&&&&&&&&&%........        ",
"        .......X&&&&&&&&&&&&2222222,&&&&&&&&&&&%........        ",
"    ........222,&&&&&&&&2222222222222222&&&&&&&=222-........    ",
"    ........222,&&&&&&&&2222222222222222&&&&&&&=222-........    ",
"    ........222,&&&&&&&&2222222222222222&&&&&&&=222-........    ",
"    ....XXXX222<========2222222222222222=======;222>XXXX....    ",
"    ....&&&&222222222222222222222222222222222222222,&&&&....    ",
"    ....&&&&222222222222222222222222222222222222222,&&&&....    ",
"    ....&&&&222222222222222222222222222222222222222,&&&&....    ",
"    ....&&&&,,,<22222222,,,,,,,,,,,,,,,,22222221,,,:&&&&....    ",
"........&&&&&&&=22222222&&&&&&&&&&&&&&&&2222222,&&&&&&&&........",
"........&&&&&&&=22222222&&&&&&&&&&&&&&&&2222222,&&&&&&&&........",
"........&&&&&&&=22222222&&&&&&&&&&&&&&&&2222222,&&&&&&&&........",
"........&&&&&&&=22222222&&&&&&&&&&&&&&&&2222222,&&&&&&&&........",
"...X&&&&&&&&&&&=222,&&&&&&&&&&&&&&&&&&&&&&&&222,&&&&&&&&&&&&....",
"...X&&&&&&&&&&&=222,&&&&&&&&&&&&&&&&&&&&&&&&222,&&&&&&&&&&&&....",
"...X&&&&&&&&&&&=222,&&&&&&&&&&&&&&&&&&&&&&&&222,&&&&&&&&&&&&....",
"...X&&&&&&&&&&&=222,&&&&&&&&&&&&&&&&&&&&&&&&222,&&&&&&&&&&&&....",
"...X&&&&&&&&&&&=222,&&&&&&&&&&&&&&&&&&&&&&&&222,&&&&&&&&&&&&....",
"...X&&&&&&&&&&&=222,&&&&&&&&&&&&&&&&&&&&&&&&222,&&&&&&&&&&&&....",
"...X&&&&&&&&&&&=222,&&&&&&&&&&&&&&&&&&&&&&&&222,&&&&&&&&&&&&....",
"...X&&&&&&&&===;222,&&&&&&&&&&&&&&&&&&&&&&&&222<===*&&&&&&&&....",
"...X&&&&&&&&2222222,&&&&&&&&&&&&&&&&&&&&&&&&2222222,&&&&&&&&....",
"...X&&&&&&&&2222222,&&&&&&&&&&&&&&&&&&&&&&&&2222222,&&&&&&&&....",
"...X&&&&&&&&2222222,&&&&&&&&&&&&&&&&&&&&&&&&2222222,&&&&&&&&....",
"...o========2222222<====&&&&&&&&&&&&&&&&====2222222<========....",
"...+22222222222222222222&&&&&&&&&&&&&&&&22222222222222222222....",
"...+22222222222222222222&&&&&&&&&&&&&&&&22222222222222222222....",
"...+22222222222222222222&&&&&&&&&&&&&&&&22222222222222222222....",
"...+22222222222222222222&&&&&&&&&&&&&&&&22222222222222222222....",
"...+22222222.......................................+22222222....",
"...+22222222.......................................+22222222....",
"...+22222222.......................................+22222222....",
"...+22222222.......................................+22222222....",
"...............#55555555....55555553....55555553................",
"...............#55555555....55555553....55555553................",
"...............#55555555....55555553....55555553................",
"............###$55555555....55555553....55555554###@............",
"    ........555555555555....55555553....555555555553........    ",
"    ........555555555555....55555553....555555555553........    ",
"    ........555555555555....55555553....555555555553........    ",
"    ........555555555555####55555554####555555555553........    ",
"        ....5555555555555555555555555555555555555553....        ",
"        ....5555555555555555555555555555555555555553....        ",
"        ....5555555555555555555555555555555555555553....        ",
"        ....5555555555555555555555555555555555555553....        ",
"        .......#55555555555555555555555555555553........        ",
"        .......#55555555555555555555555555555553........        ",
"        .......#55555555555555555555555555555553........        ",
"        .......#55555555555555555555555555555553........        ",
"            ........................................            ",
"            ........................................            ",
"            ........................................            ",
"            ........................................            "
};
