/* XPM */
static char *_c51325f6cc74c82a991f7a6bce16322BJuNkwsgpvJ72s9M[] = {
/* columns rows colors chars-per-pixel */
"64 64 4 1 ",
"  c None",
". c black",
"X c #A11818",
"o c white",
/* pixels */
"                                                                ",
"                                                                ",
"                                                                ",
"                                                                ",
"                                                                ",
"                                                                ",
"                                                                ",
"                                                                ",
"                                                                ",
"                                                                ",
"                                                                ",
"                                                                ",
"                                                                ",
"                                                                ",
"                                                                ",
"                                                                ",
"                      ................                          ",
"                      ................                          ",
"                  ....XXXXXXXXXX........                        ",
"                  ....XXXXXXXXXX........                        ",
"                ..XXXXXXXXXX....oooooooo..                      ",
"                ..XXXXXXXXXX....oooooooo..                      ",
"              ..XXXXXXXXXXXX..oooooooooooo..                    ",
"              ..XXXXXXXXXXXX..oooooooooooo..                    ",
"                ..XXXXXXXX....oooooooooooo..                    ",
"                ..XXXXXXXX....oooooooooooo..                    ",
"                  ..........oooo....oo....oo..                  ",
"                  ..........oooo....oo....oo..                  ",
"                ............oooo....oo....oo..                  ",
"                ............oooo....oo....oo..                  ",
"                ..XXXXXXXX..oooooooooooooooo..                  ",
"                ..XXXXXXXX..oooooooooooooooo..                  ",
"                ..XXXXXXXX....oooooooooooooo..                  ",
"                ..XXXXXXXX....oooooooooooooo..                  ",
"                  ..XXXXXXXX..oooooo..oooooo..                  ",
"                  ..XXXXXXXX..oooooo..oooooo..                  ",
"                ....XXXXXX......oooo..oooo..                    ",
"                ....XXXXXX......oooo..oooo..                    ",
"                ..XXXXXXXXXX......oooooo..XX..                  ",
"                ..XXXXXXXXXX......oooooo..XX..                  ",
"              ..XX....XXXXXX..XX..........XX..                  ",
"              ..XX....XXXXXX..XX..........XX..                  ",
"              ....oooo........XXXXXX....oo....                  ",
"              ....oooo........XXXXXX....oo....                  ",
"                ....oooo............oooooooo..                  ",
"                ....oooo............oooooooo..                  ",
"                  ..........................                    ",
"                  ..........................                    ",
"                                                                ",
"                                                                ",
"                                                                ",
"                                                                ",
"                                                                ",
"                                                                ",
"                                                                ",
"                                                                ",
"                                                                ",
"                                                                ",
"                                                                ",
"                                                                ",
"                                                                ",
"                                                                ",
"                                                                ",
"                                                                "
};
